<?xml version="1.0" encoding="UTF-8"?>
<svg width="32px" height="32px" viewBox="0 0 32 32" version="1.1" xmlns="http://www.w3.org/2000/svg">
    <title>Stink Bomb</title>
    <g stroke="none" stroke-width="1" fill="none" fill-rule="evenodd">
        <!-- Bomb body -->
        <circle cx="16" cy="18" r="12" fill="#4a4a4a"/>
        <!-- Bomb fuse -->
        <path d="M16,6 C16,6 20,2 24,4" stroke="#8B4513" stroke-width="2" stroke-linecap="round"/>
        <!-- Stink clouds -->
        <path d="M8,12 C8,12 4,10 6,8" stroke="#7ab317" stroke-width="1.5" stroke-linecap="round" transform="translate(0, -4)"/>
        <path d="M24,12 C24,12 28,10 26,8" stroke="#7ab317" stroke-width="1.5" stroke-linecap="round" transform="translate(0, -4)"/>
        <path d="M10,8 C10,8 6,6 8,4" stroke="#7ab317" stroke-width="1.5" stroke-linecap="round" transform="translate(0, -2)"/>
        <path d="M22,8 C22,8 26,6 24,4" stroke="#7ab317" stroke-width="1.5" stroke-linecap="round" transform="translate(0, -2)"/>
        <path d="M16,6 C16,6 12,4 14,2" stroke="#7ab317" stroke-width="1.5" stroke-linecap="round"/>
    </g>
</svg> 